<svg xmlns="http://www.w3.org/2000/svg" version="1.1" xmlns:xlink="http://www.w3.org/1999/xlink" xmlns:svgjs="http://svgjs.dev/svgjs" viewBox="0 0 800 400"><path d="M144.98207092285156,193.90679931640625C152.89724477132162,182.85542678833008,172.61051177978516,130.58542124430338,192.47311401367188,127.59856414794922C212.3357162475586,124.61170705159505,245.0417938232422,180.46594365437826,264.1576843261719,175.98565673828125C283.27357482910156,171.50536982218424,283.8709665934245,105.94384256998698,307.16845703125,100.71684265136719C330.4659474690755,95.48984273274739,385.5734507242839,149.70131556193033,403.942626953125,144.6236572265625C422.3118031819661,139.54599889119467,404.8387095133464,84.13978258768718,417.3835144042969,70.25089263916016C429.9283192952474,56.36200269063314,462.9330800374349,57.258060455322266,479.2114562988281,61.29031753540039C495.4898325602214,65.32257461547852,517.4432576497396,80.10751660664876,515.0537719726562,94.4444351196289C512.6642862955729,108.78135363260905,470.2508900960286,131.03345362345377,464.8745422363281,147.31182861328125C459.4981943766276,163.59020360310873,471.8936513264974,186.58899943033853,482.7956848144531,192.11468505859375C493.6977183024089,197.64037068684897,512.9629669189453,186.1409708658854,530.2867431640625,180.4659423828125C547.6105194091797,174.7909138997396,570.7586568196615,162.99282836914062,586.7383422851562,158.06451416015625C602.718027750651,153.13619995117188,618.9963989257812,144.3249715169271,626.1648559570312,150.89605712890625C633.3333129882812,157.4671427408854,629.1517130533854,189.7251993815104,629.7490844726562,197.49102783203125" fill="none" stroke-width="2" stroke="hsl(100, 100%, 100%)" stroke-linecap="round"></path><defs><linearGradient id="SvgjsLinearGradient1000"><stop stop-color="hsl(37, 99%, 67%)" offset="0"></stop><stop stop-color="hsl(316, 73%, 52%)" offset="1"></stop></linearGradient></defs></svg>