<svg xmlns="http://www.w3.org/2000/svg" version="1.1" xmlns:xlink="http://www.w3.org/1999/xlink" xmlns:svgjs="http://svgjs.dev/svgjs" viewBox="0 0 800 400"><path d="M27.598554611206055,15.949820518493652C27.598554611206055,21.774193286895752,27.598554611206055,38.94862604141235,27.598554611206055,50.89605712890625C27.598554611206055,62.84348821640015,26.851840019226074,75.53763326009114,27.598554611206055,87.63440704345703C28.345269203186035,99.73118082682292,29.54001267751058,111.52926762898763,32.07884216308594,123.47669982910156C34.61767164866129,135.42413202921549,39.24730237325033,149.01434071858725,42.8315315246582,159.31900024414062C46.41576067606608,169.623659769694,48.95458793640137,176.64276885986328,53.5842170715332,185.30465698242188C58.21384620666504,193.96654510498047,64.78493309020996,203.52449798583984,70.60930633544922,211.2903289794922C76.43367958068848,219.05615997314453,81.66068267822266,225.47790018717447,88.53045654296875,231.89964294433594C95.40023040771484,238.3213857014974,104.65948994954427,243.9964116414388,111.82794952392578,249.82078552246094C118.9964090983073,255.64515940348306,124.07406997680664,260.57348378499347,131.5412139892578,266.84588623046875C139.00835800170898,273.11828867594403,148.11827087402344,281.9295145670573,156.6308135986328,287.4552001953125C165.1433563232422,292.9808858235677,172.9091822306315,296.11708577473956,182.61647033691406,300C192.32375844319662,303.88291422526044,206.0633112589518,308.21385701497394,214.87454223632812,310.752685546875C223.68577321370444,313.29151407877606,228.01671346028647,313.29151407877606,235.48385620117188,315.23297119140625C242.95099894205728,317.17442830403644,252.21025594075522,320.75865681966144,259.6773986816406,322.40142822265625C267.14454142252606,324.04419962565106,272.3715362548828,324.6415710449219,280.2867126464844,325.089599609375C288.20188903808594,325.5376281738281,298.2078806559245,325.5376281738281,307.16845703125,325.089599609375C316.1290334065755,324.6415710449219,325.83631388346356,322.99879964192706,334.0501708984375,322.40142822265625C342.26402791341144,321.80405680338544,348.9844563802083,322.40142822265625,356.45159912109375,321.50537109375C363.9187418619792,320.60931396484375,370.63917032877606,318.21982828776044,378.85302734375,317.02508544921875C387.06688435872394,315.83034261067706,397.3715362548828,315.9796854654948,405.7347412109375,314.3369140625C414.0979461669922,312.6941426595052,420.2210235595703,310.1553141276042,429.0322570800781,307.16845703125C437.84349060058594,304.1815999348958,449.04419962565106,299.8506571451823,458.6021423339844,296.415771484375C468.1600850423177,292.9808858235677,478.46474202473956,288.50060017903644,486.3799133300781,286.55914306640625C494.2950846354167,284.61768595377606,499.97010803222656,285.36440022786456,506.0931701660156,284.76702880859375C512.2162322998047,284.16965738932294,515.9498240152994,283.8709716796875,523.1182861328125,282.97491455078125C530.2867482503256,282.078857421875,541.0394287109375,280.7347717285156,549.1039428710938,279.39068603515625C557.16845703125,278.0466003417969,564.4862569173177,275.65711466471356,571.50537109375,274.910400390625C578.5244852701823,274.16368611653644,584.0501708984375,275.5077718098958,591.2186279296875,274.910400390625C598.3870849609375,274.3130289713542,607.0489705403646,273.41697184244794,614.51611328125,271.326171875C621.9832560221354,269.23537190755206,628.2556559244791,266.69654591878253,636.021484375,262.3656005859375C643.7873128255209,258.03465525309247,654.2413126627604,250.26881663004556,661.111083984375,245.3404998779297C667.9808553059896,240.4121831258138,672.0131123860677,236.23058573404947,677.2401123046875,232.7957000732422C682.4671122233073,229.3608144124349,686.6487121582031,226.37395731608072,692.4730834960938,224.73118591308594C698.2974548339844,223.08841451009116,706.8099873860677,223.23775736490884,712.1863403320312,222.93907165527344C717.5626932779948,222.64038594563803,718.3094482421875,222.93907165527344,724.731201171875,222.93907165527344C731.1529541015625,222.93907165527344,742.3536580403646,223.23775736490884,750.7168579101562,222.93907165527344C759.0800577799479,222.64038594563803,770.8781433105469,221.44564310709634,774.910400390625,221.14695739746094" fill="none" stroke-width="4" stroke="hsl(100, 100%, 100%)" stroke-linecap="round"></path><defs><linearGradient id="SvgjsLinearGradient1002"><stop stop-color="hsl(37, 99%, 67%)" offset="0"></stop><stop stop-color="hsl(316, 73%, 52%)" offset="1"></stop></linearGradient></defs></svg>